# xmcd
#
# Track frame offsets: 
#        150
#        15537
#        34017
#        49825
#        64927
#        80642
#        94230
#        111165
#        121750
#        138362
#        149322
#        160172
#        176267
#        190052
#        203672
#        219617
#        235630
#        257912
#        274542
#        291247
#
# Disc length: 4041 seconds
#
# Revision: 2
# Processed by: cddbd v1.5.2PL0 Copyright (c) Steve Scherf et al.
# Submitted via: ExactAudioCopy v1.0b4
#
DISCID=1c0fc714
DTITLE=Various Artist - Music First - Vol. 3
DYEAR=1995
DGENRE=Country
TTITLE0=Doug Stone - Faith In Me, Faith In You
TTITLE1=Patty Loveless - You Don't Even Know Who I Am
TTITLE2=Joe Diffie - So Help Me Girl
TTITLE3=Wade Hayes - I'm Still Dancin' With You
TTITLE4=James House - This Is Me Missing You
TTITLE5=Rick Trevino - Save This One For Me
TTITLE6=Mary Chapin Carpenter - House Of Cards
TTITLE7=Stacy Dean Campbell - Eight Feet High
TTITLE8=Ty Herndon - What Mattered Most
TTITLE9=Larry Stewart - Rockin' The Rock
TTITLE10=Ken Mellons - Workin' For The Weekend
TTITLE11=Collin Raye - The Wall
TTITLE12=Joe Diffie - Good Brown Gravy
TTITLE13=Patty Loveless - Old Weakness
TTITLE14=Doug Stone - Sometimes I Forget
TTITLE15=Wade Hayes - Don't Make Me Come To Tulsa
TTITLE16=Ty Herndon - Heart Half Empty
TTITLE17=James House - Anything For Love
TTITLE18=Stacy Dean Campbell - I Can Dream
TTITLE19=Ty Herndon - Fuel To The Fire
EXTD=
EXTT0=
EXTT1=
EXTT2=
EXTT3=
EXTT4=
EXTT5=
EXTT6=
EXTT7=
EXTT8=
EXTT9=
EXTT10=
EXTT11=
EXTT12=
EXTT13=
EXTT14=
EXTT15=
EXTT16=
EXTT17=
EXTT18=
EXTT19=
PLAYORDER=
